<svg xmlns="http://www.w3.org/2000/svg" viewBox="0 0 30 20">
  <rect width="30" height="20" fill="#DE2910"/>
  <polygon transform="translate(5,5) scale(3)" fill="#FFDE00" points="0,-1 0.224,-0.309 0.951,-0.309 0.363,0.118 0.588,0.809 0,-0.382 -0.588,0.809 -0.363,0.118 -0.951,-0.309 -0.224,-0.309"/>
  <polygon transform="translate(10,2) scale(1)" fill="#FFDE00" points="0,-1 0.224,-0.309 0.951,-0.309 0.363,0.118 0.588,0.809 0,-0.382 -0.588,0.809 -0.363,0.118 -0.951,-0.309 -0.224,-0.309"/>
  <polygon transform="translate(12,4) scale(1)" fill="#FFDE00" points="0,-1 0.224,-0.309 0.951,-0.309 0.363,0.118 0.588,0.809 0,-0.382 -0.588,0.809 -0.363,0.118 -0.951,-0.309 -0.224,-0.309"/>
  <polygon transform="translate(12,7) scale(1)" fill="#FFDE00" points="0,-1 0.224,-0.309 0.951,-0.309 0.363,0.118 0.588,0.809 0,-0.382 -0.588,0.809 -0.363,0.118 -0.951,-0.309 -0.224,-0.309"/>
  <polygon transform="translate(10,9) scale(1)" fill="#FFDE00" points="0,-1 0.224,-0.309 0.951,-0.309 0.363,0.118 0.588,0.809 0,-0.382 -0.588,0.809 -0.363,0.118 -0.951,-0.309 -0.224,-0.309"/>
</svg>
